<svg width="42" height="42" viewBox="0 0 42 42" fill="none" xmlns="http://www.w3.org/2000/svg">
<g clip-path="url(#clip0)" style="stroke-width:5">
<path d="M31.2958 11.8708L11.8708 31.2958C11.4361 31.7305 10.9527 31.9527 10.7917 31.7917C10.6307 31.6307 10.8528 31.1472 11.2875 30.7125L30.7125 11.2875C31.1472 10.8528 31.6307 10.6307 31.7917 10.7917C31.9527 10.9527 31.7305 11.4361 31.2958 11.8708Z" fill="black"/>
<path d="M31.7917 31.7917C31.6307 31.9527 31.1472 31.7305 30.7125 31.2958L11.2875 11.8708C10.8528 11.4361 10.6307 10.9527 10.7917 10.7917C10.9527 10.6307 11.4361 10.8528 11.8708 11.2875L31.2958 30.7125C31.7305 31.1472 31.9527 31.6307 31.7917 31.7917Z" fill="black"/>
</g>
<defs>
<clipPath id="clip0">
<rect width="29.6985" height="29.6985" fill="white" transform="translate(0 21) rotate(-45)"/>
</clipPath>
</defs>
</svg>
