<svg width="56" height="56" viewBox="0 0 56 56" fill="none" xmlns="http://www.w3.org/2000/svg">
<path d="M28.0261 47.0471L18.2075 36.6675L21.3858 33.661L28.0175 40.6717L34.6099 33.6653L37.7963 36.6633L28.0261 47.0471ZM46.1562 42.875V13.125C46.1562 5.88788 40.2684 0 33.0312 0H22.9688C15.7316 0 9.84375 5.88788 9.84375 13.125V42.875C9.84375 50.1121 15.7316 56 22.9688 56H33.0312C40.2684 56 46.1562 50.1121 46.1562 42.875ZM33.0312 4.375C37.8561 4.375 41.7812 8.30011 41.7812 13.125V42.875C41.7812 47.6999 37.8561 51.625 33.0312 51.625H22.9688C18.1439 51.625 14.2188 47.6999 14.2188 42.875V13.125C14.2188 8.30011 18.1439 4.375 22.9688 4.375H33.0312ZM28 8.85938C26.7917 8.85938 25.8125 9.83862 25.8125 11.0469C25.8125 12.2551 26.7917 13.2344 28 13.2344C29.2083 13.2344 30.1875 12.2551 30.1875 11.0469C30.1875 9.83862 29.2083 8.85938 28 8.85938ZM28 17.6094C26.7917 17.6094 25.8125 18.5886 25.8125 19.7969C25.8125 21.0051 26.7917 21.9844 28 21.9844C29.2083 21.9844 30.1875 21.0051 30.1875 19.7969C30.1875 18.5886 29.2083 17.6094 28 17.6094ZM28 26.3594C26.7917 26.3594 25.8125 27.3386 25.8125 28.5469C25.8125 29.7551 26.7917 30.7344 28 30.7344C29.2083 30.7344 30.1875 29.7551 30.1875 28.5469C30.1875 27.3386 29.2083 26.3594 28 26.3594Z" fill="white"/>
</svg>
