<svg width="36" height="36" viewBox="0 0 36 36" fill="none" xmlns="http://www.w3.org/2000/svg">
<path d="M28.1665 12.3667H22.7871V15.5586H28.1665C29.7662 15.5586 31.0073 16.3757 31.0073 17.079V31.233C31.0073 31.9363 29.7662 32.7535 28.1665 32.7535H7.83295C6.23327 32.7535 4.99215 31.9363 4.99215 31.233V17.0796C4.99215 16.3763 6.23327 15.5591 7.83295 15.5591H13.2113V12.3672H7.83295C4.45005 12.3672 1.80023 14.4372 1.80023 17.0796V31.2336C1.80023 33.8765 4.45005 35.9459 7.83295 35.9459H28.167C31.5494 35.9459 34.1998 33.8759 34.1998 31.2336V17.0796C34.1992 14.4367 31.5494 12.3667 28.1665 12.3667Z" fill="#D2D2D2"/>
<path d="M13.2767 7.95585C13.6853 7.95585 14.0933 7.79997 14.4051 7.48823L16.4032 5.49009V12.4208V15.6127V21.7274C16.4032 22.6089 17.1177 23.3233 17.9992 23.3233C18.8807 23.3233 19.5951 22.6089 19.5951 21.7274V15.6127V12.4208V5.3821L21.7013 7.48823C22.013 7.79997 22.4216 7.95585 22.8296 7.95585C23.2376 7.95585 23.6462 7.79997 23.9579 7.48823C24.5814 6.86527 24.5814 5.8545 23.9579 5.23155L19.1929 0.466551C18.8812 0.154808 18.4732 0 18.0651 0C18.0609 0 18.0571 0 18.0529 0C18.0486 0 18.0449 0 18.0407 0C17.6326 0 17.2246 0.154808 16.9128 0.466551L12.1479 5.23155C11.5244 5.8545 11.5244 6.86527 12.1479 7.48823C12.4601 7.79997 12.8682 7.95585 13.2767 7.95585Z" fill="#D2D2D2"/>
</svg>
