<svg width="280" height="70" viewBox="0 0 280 70" fill="none" xmlns="http://www.w3.org/2000/svg">
<path d="M99.2383 47.5811H90.2881V57H87.4756V35.6719H100.688V37.9863H90.2881V45.2812H99.2383V47.5811ZM106.885 54.7002H116.992V57H104.058V35.6719H106.885V54.7002ZM132.271 51.4336H123.335L121.328 57H118.428L126.572 35.6719H129.033L137.192 57H134.307L132.271 51.4336ZM124.185 49.1191H131.436L127.803 39.1436L124.185 49.1191ZM146.348 47.4932C143.936 46.7998 142.178 45.9502 141.074 44.9443C139.98 43.9287 139.434 42.6787 139.434 41.1943C139.434 39.5146 140.103 38.1279 141.44 37.0342C142.788 35.9307 144.536 35.3789 146.685 35.3789C148.149 35.3789 149.453 35.6621 150.596 36.2285C151.748 36.7949 152.637 37.5762 153.262 38.5723C153.896 39.5684 154.214 40.6572 154.214 41.8389H151.387C151.387 40.5498 150.977 39.5391 150.156 38.8066C149.336 38.0645 148.179 37.6934 146.685 37.6934C145.298 37.6934 144.214 38.001 143.433 38.6162C142.661 39.2217 142.275 40.0664 142.275 41.1504C142.275 42.0195 142.642 42.7568 143.374 43.3623C144.116 43.958 145.371 44.5049 147.139 45.0029C148.916 45.501 150.303 46.0527 151.299 46.6582C152.305 47.2539 153.047 47.9521 153.525 48.7529C154.014 49.5537 154.258 50.4961 154.258 51.5801C154.258 53.3086 153.584 54.6953 152.236 55.7402C150.889 56.7754 149.087 57.293 146.831 57.293C145.366 57.293 143.999 57.0146 142.729 56.458C141.46 55.8916 140.479 55.1201 139.785 54.1436C139.102 53.167 138.76 52.0586 138.76 50.8184H141.587C141.587 52.1074 142.061 53.1279 143.008 53.8799C143.965 54.6221 145.239 54.9932 146.831 54.9932C148.315 54.9932 149.453 54.6904 150.244 54.085C151.035 53.4795 151.431 52.6543 151.431 51.6094C151.431 50.5645 151.064 49.7588 150.332 49.1924C149.6 48.6162 148.271 48.0498 146.348 47.4932ZM174.268 57H171.44V47.1416H160.688V57H157.876V35.6719H160.688V44.8418H171.44V35.6719H174.268V57ZM202.393 50.2324C202.129 52.4883 201.294 54.2314 199.888 55.4619C198.491 56.6826 196.631 57.293 194.307 57.293C191.787 57.293 189.766 56.3896 188.242 54.583C186.729 52.7764 185.972 50.3594 185.972 47.332V45.2812C185.972 43.2988 186.323 41.5557 187.026 40.0518C187.739 38.5479 188.745 37.3955 190.044 36.5947C191.343 35.7842 192.847 35.3789 194.556 35.3789C196.821 35.3789 198.638 36.0137 200.005 37.2832C201.372 38.543 202.168 40.291 202.393 42.5273H199.565C199.321 40.8281 198.789 39.5977 197.969 38.8359C197.158 38.0742 196.021 37.6934 194.556 37.6934C192.759 37.6934 191.348 38.3574 190.322 39.6855C189.307 41.0137 188.799 42.9033 188.799 45.3545V47.4199C188.799 49.7344 189.282 51.5752 190.249 52.9424C191.216 54.3096 192.568 54.9932 194.307 54.9932C195.869 54.9932 197.065 54.6416 197.896 53.9385C198.735 53.2256 199.292 51.9902 199.565 50.2324H202.393ZM218.022 51.4336H209.087L207.08 57H204.18L212.324 35.6719H214.785L222.944 57H220.059L218.022 51.4336ZM209.937 49.1191H217.188L213.555 39.1436L209.937 49.1191ZM233.638 48.3721H228.628V57H225.801V35.6719H232.861C235.264 35.6719 237.109 36.2188 238.398 37.3125C239.697 38.4062 240.347 39.998 240.347 42.0879C240.347 43.416 239.985 44.5732 239.263 45.5596C238.55 46.5459 237.554 47.2832 236.274 47.7715L241.284 56.8242V57H238.267L233.638 48.3721ZM228.628 46.0723H232.949C234.346 46.0723 235.454 45.7109 236.274 44.9883C237.104 44.2656 237.52 43.2988 237.52 42.0879C237.52 40.7695 237.124 39.7588 236.333 39.0557C235.552 38.3525 234.419 37.9961 232.935 37.9863H228.628V46.0723ZM244.302 57V35.6719H250.322C252.178 35.6719 253.818 36.082 255.244 36.9023C256.67 37.7227 257.769 38.8896 258.54 40.4033C259.321 41.917 259.717 43.6553 259.727 45.6182V46.9805C259.727 48.9922 259.336 50.7549 258.555 52.2686C257.783 53.7822 256.675 54.9443 255.229 55.7549C253.794 56.5654 252.119 56.9805 250.205 57H244.302ZM247.114 37.9863V54.7002H250.073C252.241 54.7002 253.926 54.0264 255.127 52.6787C256.338 51.3311 256.943 49.4121 256.943 46.9219V45.6768C256.943 43.2549 256.372 41.375 255.229 40.0371C254.097 38.6895 252.485 38.0059 250.396 37.9863H247.114ZM270.273 47.4932C267.861 46.7998 266.104 45.9502 265 44.9443C263.906 43.9287 263.359 42.6787 263.359 41.1943C263.359 39.5146 264.028 38.1279 265.366 37.0342C266.714 35.9307 268.462 35.3789 270.61 35.3789C272.075 35.3789 273.379 35.6621 274.521 36.2285C275.674 36.7949 276.562 37.5762 277.188 38.5723C277.822 39.5684 278.14 40.6572 278.14 41.8389H275.312C275.312 40.5498 274.902 39.5391 274.082 38.8066C273.262 38.0645 272.104 37.6934 270.61 37.6934C269.224 37.6934 268.14 38.001 267.358 38.6162C266.587 39.2217 266.201 40.0664 266.201 41.1504C266.201 42.0195 266.567 42.7568 267.3 43.3623C268.042 43.958 269.297 44.5049 271.064 45.0029C272.842 45.501 274.229 46.0527 275.225 46.6582C276.23 47.2539 276.973 47.9521 277.451 48.7529C277.939 49.5537 278.184 50.4961 278.184 51.5801C278.184 53.3086 277.51 54.6953 276.162 55.7402C274.814 56.7754 273.013 57.293 270.757 57.293C269.292 57.293 267.925 57.0146 266.655 56.458C265.386 55.8916 264.404 55.1201 263.711 54.1436C263.027 53.167 262.686 52.0586 262.686 50.8184H265.513C265.513 52.1074 265.986 53.1279 266.934 53.8799C267.891 54.6221 269.165 54.9932 270.757 54.9932C272.241 54.9932 273.379 54.6904 274.17 54.085C274.961 53.4795 275.356 52.6543 275.356 51.6094C275.356 50.5645 274.99 49.7588 274.258 49.1924C273.525 48.6162 272.197 48.0498 270.273 47.4932Z" fill="#00A3FF"/>
<path d="M41.8359 11.3477C41.0813 11.3477 40.4688 11.9602 40.4688 12.7148C40.4688 13.4695 41.0813 14.082 41.8359 14.082C42.5906 14.082 43.2031 13.4695 43.2031 12.7148C43.2031 11.9602 42.5906 11.3477 41.8359 11.3477Z" fill="#00A3FF"/>
<path d="M28.1641 11.3477C27.4094 11.3477 26.7969 11.9602 26.7969 12.7148C26.7969 13.4695 27.4094 14.082 28.1641 14.082C28.9188 14.082 29.5312 13.4695 29.5312 12.7148C29.5312 11.9602 28.9188 11.3477 28.1641 11.3477Z" fill="#00A3FF"/>
<path d="M64.6848 40.8628C65.8582 39.1016 66.4453 36.9041 66.4453 35C66.4453 32.1295 65.1701 29.4625 62.982 27.654C63.4662 26.4968 63.7109 25.2932 63.7109 24.0625C63.7109 20.2542 61.4884 16.7066 58.1841 15.05C58.6854 10.8918 55.9759 7.08039 51.9606 6.10818C50.3891 2.47516 46.8911 0 43.2031 0C39.7701 0 36.6911 2.00238 35 4.92406C33.3088 2.00238 30.2297 0 26.7969 0C23.1086 0 19.6107 2.47516 18.0394 6.10832C14 7.08668 11.3159 10.9171 11.8159 15.05C8.5117 16.7065 6.28906 20.2542 6.28906 24.0625C6.28906 25.2932 6.53379 26.4968 7.01805 27.654C4.82986 29.4626 3.55469 32.1295 3.55469 35C3.55469 36.9141 4.14668 39.1087 5.31521 40.8626C4.17334 42.4746 3.55469 44.3849 3.55469 46.3477C3.55469 48.8928 4.58664 51.3174 6.41197 53.1177C5.47353 58.7904 9.99756 64.5312 15.8594 64.5312C15.9018 64.5312 15.9435 64.5306 15.9843 64.5293C17.9278 67.882 21.5353 70 25.4297 70C29.4886 70 33.1155 67.5637 35 64.0536C36.8845 67.5637 40.5114 70 44.5703 70C48.4647 70 52.0722 67.882 54.0157 64.5293C54.0567 64.5306 54.0982 64.5312 54.1406 64.5312C59.3283 64.5312 63.7109 59.9607 63.7109 54.5508C63.7109 54.0902 63.6705 53.6164 63.588 53.1177C65.4134 51.3174 66.4453 48.8929 66.4453 46.3477C66.4453 44.3849 65.8267 42.4745 64.6848 40.8628ZM33.6328 20.6966C32.8278 20.2297 31.8942 19.9609 30.8984 19.9609C30.1433 19.9609 29.5312 20.573 29.5312 21.3281C29.5312 22.0832 30.1433 22.6953 30.8984 22.6953C32.4062 22.6953 33.6328 23.922 33.6328 25.4297V51.4294C31.627 49.1542 28.6941 47.7148 25.4297 47.7148C24.6746 47.7148 24.0625 48.3269 24.0625 49.082C24.0625 49.8371 24.6746 50.4492 25.4297 50.4492C29.9529 50.4492 33.6328 54.1291 33.6328 58.6523C33.6328 63.3212 29.8762 67.2656 25.4297 67.2656C22.2644 67.2656 19.3505 65.3938 18.006 62.4969C17.7581 61.963 17.1968 61.6481 16.6115 61.714C16.5148 61.7251 16.4187 61.7379 16.3226 61.7511C12.4316 62.2832 8.04973 57.8772 9.2359 52.9482C9.35772 52.4419 9.18135 51.9106 8.78117 51.5776C7.19742 50.2597 6.28906 48.3535 6.28906 46.3477C6.28906 45.1075 6.63975 43.8938 7.2923 42.8296C8.93211 44.1736 10.9718 44.9805 13.125 44.9805C13.8801 44.9805 14.4922 44.3684 14.4922 43.6133C14.4922 42.8582 13.8801 42.2461 13.125 42.2461C9.41459 42.2461 6.28906 38.8596 6.28906 35C6.28906 32.6587 7.48248 30.5048 9.48172 29.2384C10.0976 28.8482 10.299 28.0433 9.93932 27.4091C9.3316 26.3374 9.02344 25.2113 9.02344 24.0625C9.02344 20.3725 12.0315 16.8164 15.8594 16.8164C19.501 16.8164 22.6953 20.2025 22.6953 24.0625C22.6953 24.8176 23.3074 25.4297 24.0625 25.4297C24.8176 25.4297 25.4297 24.8176 25.4297 24.0625C25.4297 18.6525 21.047 14.082 15.8594 14.082C15.4016 14.082 14.9464 14.1191 14.4956 14.1892C14.4949 14.1533 14.4922 14.1183 14.4922 14.082C14.4922 11.0309 16.9691 8.61328 19.9609 8.61328C21.4214 8.61328 22.7951 9.18217 23.829 10.2149C24.3631 10.7486 25.2287 10.748 25.7625 10.214C26.2961 9.67969 26.2957 8.81412 25.7615 8.28051C24.5142 7.03459 22.9366 6.23998 21.227 5.97666C22.4327 4.18687 24.4377 2.73438 26.7969 2.73438C30.4385 2.73438 33.6328 6.12035 33.6328 9.98047V20.6966ZM56.875 44.9805C59.0283 44.9805 61.068 44.1734 62.7078 42.83C63.3603 43.8941 63.7109 45.1076 63.7109 46.3477C63.7109 48.3535 62.8026 50.2597 61.219 51.5776C60.8187 51.9106 60.6424 52.442 60.7642 52.9482C60.9092 53.5501 60.9766 54.0594 60.9766 54.5506C60.9766 58.7944 57.1382 62.2241 53.6776 61.7511C53.5814 61.7379 53.4852 61.725 53.3885 61.714C52.8024 61.6477 52.2417 61.963 51.9941 62.4969C50.6496 65.3938 47.7355 67.2656 44.5703 67.2656C40.1238 67.2656 36.3672 63.3212 36.3672 58.6523C36.3672 54.1291 40.0471 50.4492 44.5703 50.4492C45.3253 50.4492 45.9375 49.8371 45.9375 49.082C45.9375 48.3269 45.3253 47.7148 44.5703 47.7148C41.3059 47.7148 38.373 49.1542 36.3672 51.4294V25.4297C36.3672 23.922 37.5938 22.6953 39.1016 22.6953C39.8565 22.6953 40.4688 22.0832 40.4688 21.3281C40.4688 20.573 39.8565 19.9609 39.1016 19.9609C38.1058 19.9609 37.1722 20.2297 36.3672 20.6966V9.98047C36.3672 6.12035 39.5615 2.73438 43.2031 2.73438C45.5623 2.73438 47.5672 4.18687 48.7729 5.97652C47.0634 6.23984 45.4859 7.03445 44.2385 8.28037C43.7042 8.81398 43.7037 9.67955 44.2373 10.2138C44.7709 10.7481 45.6367 10.7486 46.1707 10.2149C47.205 9.18217 48.5786 8.61328 50.0391 8.61328C53.0459 8.61328 55.5078 11.0451 55.5078 14.082C55.5078 14.1181 55.5051 14.1533 55.5044 14.1892C55.0536 14.1191 54.5984 14.082 54.1406 14.082C48.953 14.082 44.5703 18.6525 44.5703 24.0625C44.5703 24.8176 45.1825 25.4297 45.9375 25.4297C46.6925 25.4297 47.3047 24.8176 47.3047 24.0625C47.3047 20.2025 50.499 16.8164 54.1406 16.8164C57.9663 16.8164 60.9766 20.3707 60.9766 24.0625C60.9766 25.2113 60.6684 26.3374 60.0607 27.4091C59.7011 28.0433 59.9025 28.8482 60.5184 29.2384C62.5175 30.5048 63.7109 32.6587 63.7109 35C63.7109 38.8734 60.5745 42.2461 56.875 42.2461C56.12 42.2461 55.5078 42.8582 55.5078 43.6133C55.5078 44.3684 56.12 44.9805 56.875 44.9805Z" fill="#00A3FF"/>
<path d="M30.5502 29.2651C30.0468 28.7023 29.1826 28.6542 28.6197 29.1576C24.2354 33.0794 17.2266 29.9451 17.2266 24.0625C17.2266 23.3074 16.6145 22.6953 15.8594 22.6953C15.1043 22.6953 14.4922 23.3074 14.4922 24.0625C14.4922 28.8087 17.9658 32.7571 22.5039 33.5039C21.9775 35.162 20.4239 36.3672 18.5937 36.3672C17.8387 36.3672 17.2266 36.9793 17.2266 37.7344C17.2266 38.4895 17.8387 39.1016 18.5937 39.1016C21.9238 39.1016 24.7037 36.7076 25.3069 33.5505C27.2083 33.3018 28.9978 32.4882 30.4428 31.1955C31.0055 30.6921 31.0536 29.8278 30.5502 29.2651Z" fill="#00A3FF"/>
<path d="M15.8594 53.1836C15.1043 53.1836 14.4922 53.7957 14.4922 54.5508C14.4922 55.3059 15.1043 55.918 15.8594 55.918C19.501 55.918 22.6953 59.3041 22.6953 63.1641C22.6953 63.9192 23.3074 64.5312 24.0625 64.5312C24.8176 64.5312 25.4297 63.9192 25.4297 63.1641C25.4297 57.7541 21.047 53.1836 15.8594 53.1836Z" fill="#00A3FF"/>
<path d="M26.7969 42.2461C22.164 42.2461 18.1863 44.787 16.0918 48.4816C15.7195 49.1385 15.9502 49.9729 16.607 50.3452C17.2639 50.7175 18.0982 50.487 18.4706 49.83C20.1023 46.9513 23.1985 44.9805 26.7969 44.9805C27.552 44.9805 28.1641 44.3684 28.1641 43.6133C28.1641 42.8582 27.552 42.2461 26.7969 42.2461Z" fill="#00A3FF"/>
<path d="M51.4062 36.3672C49.5761 36.3672 48.0225 35.162 47.4961 33.5039C52.0342 32.7571 55.5078 28.8087 55.5078 24.0625C55.5078 23.3074 54.8956 22.6953 54.1406 22.6953C53.3857 22.6953 52.7734 23.3074 52.7734 24.0625C52.7734 27.8318 49.7068 30.8984 45.9375 30.8984C44.2537 30.8984 42.6353 30.2802 41.3802 29.1576C40.8177 28.6542 39.9532 28.7022 39.4498 29.2651C38.9462 29.8278 38.9945 30.6921 39.5572 31.1955C41.0022 32.4882 42.7919 33.3018 44.6931 33.5505C45.2963 36.7076 48.0762 39.1016 51.4062 39.1016C52.1612 39.1016 52.7734 38.4895 52.7734 37.7344C52.7734 36.9793 52.1612 36.3672 51.4062 36.3672Z" fill="#00A3FF"/>
<path d="M54.1406 53.1836C48.953 53.1836 44.5703 57.7541 44.5703 63.1641C44.5703 63.9192 45.1825 64.5312 45.9375 64.5312C46.6925 64.5312 47.3047 63.9192 47.3047 63.1641C47.3047 59.3041 50.499 55.918 54.1406 55.918C54.8956 55.918 55.5078 55.3059 55.5078 54.5508C55.5078 53.7957 54.8956 53.1836 54.1406 53.1836Z" fill="#00A3FF"/>
<path d="M53.9082 48.4817C51.8189 44.7959 47.8466 42.2461 43.2031 42.2461C42.4482 42.2461 41.8359 42.8582 41.8359 43.6133C41.8359 44.3684 42.4482 44.9805 43.2031 44.9805C46.799 44.9805 49.8974 46.9507 51.5292 49.83C51.902 50.4878 52.7369 50.7172 53.3928 50.3453C54.0497 49.973 54.2803 49.1386 53.9082 48.4817Z" fill="#00A3FF"/>
</svg>
