<svg width="72" height="72" viewBox="0 0 72 72" fill="none" xmlns="http://www.w3.org/2000/svg">
<g clip-path="url(#clip0)">
<path d="M69.3 38H2.69999C1.20959 38 0 37.552 0 37C0 36.448 1.20959 36 2.69999 36H69.3C70.7904 36 72 36.448 72 37C72 37.552 70.7904 38 69.3 38Z" fill="black"/>
<path d="M36 73C35.448 73 35 71.7904 35 70.3V3.69999C35 2.20959 35.448 1 36 1C36.552 1 37 2.20959 37 3.69999V70.3C37 71.7904 36.552 73 36 73Z" fill="black"/>
</g>
<defs>
<clipPath id="clip0">
<rect width="72" height="72" fill="white"/>
</clipPath>
</defs>
</svg>
